<svg height="96" width="96" xmlns="http://www.w3.org/2000/svg" xmlns:xlink="http://www.w3.org/1999/xlink"><linearGradient id="a"><stop offset="0" stop-color="#fefefe"/><stop offset="1" stop-color="#fefefe" stop-opacity="0"/></linearGradient><linearGradient id="b" gradientUnits="userSpaceOnUse" x1="48" x2="48" y1="90" y2="5.987717"><stop offset="0" stop-color="#a77549"/><stop offset="1" stop-color="#d2b397"/></linearGradient><linearGradient id="c" gradientUnits="userSpaceOnUse" x1="36.357143" x2="36.357143" xlink:href="#a" y1="6" y2="63.893143"/><radialGradient id="d" cx="48" cy="90.171875" gradientTransform="matrix(1.1573129 0 0 .99590774 -7.551021 .197132)" gradientUnits="userSpaceOnUse" r="42" xlink:href="#a"/><clipPath id="e"><rect height="84" rx="6" width="84" x="6" y="6"/></clipPath><filter id="f" color-interpolation-filters="sRGB" height="1.384" width="1.384" x="-.192" y="-.192"><feGaussianBlur stdDeviation="5.28"/></filter><linearGradient id="g" gradientUnits="userSpaceOnUse" x1="48" x2="48" xlink:href="#a" y1="20.220806" y2="138.66119"/><linearGradient id="h" gradientTransform="matrix(1.0058652 0 0 .994169 100 0)" gradientUnits="userSpaceOnUse" x1="45.447727" x2="45.447727" y1="92.539597" y2="7.01654"><stop offset="0"/><stop offset="1" stop-opacity=".588235"/></linearGradient><linearGradient id="i" gradientTransform="matrix(1.0238095 0 0 1.0119048 -1.142857 -98.071429)" gradientUnits="userSpaceOnUse" x1="32.251034" x2="32.251034" xlink:href="#h" y1="6.131708" y2="90.238609"/><linearGradient id="j" gradientTransform="translate(0 -97)" gradientUnits="userSpaceOnUse" x1="32.251034" x2="32.251034" xlink:href="#h" y1="6.131708" y2="90.238609"/><g><g fill="url(#i)"><path d="m12-95.03125c-5.5110903 0-10.03125 4.52016-10.03125 10.03125v71c0 5.5110902 4.5201598 10.03125 10.03125 10.03125h72c5.51109 0 10.03125-4.5201597 10.03125-10.03125v-71c0-5.51109-4.52016-10.03125-10.03125-10.03125z" opacity=".08" transform="scale(1 -1)"/><path d="m12-94.03125c-4.971633 0-9.03125 4.059617-9.03125 9.03125v71c0 4.9716329 4.0596171 9.03125 9.03125 9.03125h72c4.971633 0 9.03125-4.059617 9.03125-9.03125v-71c0-4.971633-4.059617-9.03125-9.03125-9.03125z" opacity=".1" transform="scale(1 -1)"/><path d="m12-93c-4.4091333 0-8 3.590867-8 8v71c0 4.4091333 3.5908667 8 8 8h72c4.409133 0 8-3.5908667 8-8v-71c0-4.409133-3.590867-8-8-8z" opacity=".2" transform="scale(1 -1)"/><rect height="85" opacity=".3" rx="7" transform="scale(1 -1)" width="86" x="5" y="-92"/></g><rect fill="url(#j)" height="84" opacity=".45" rx="6" transform="scale(1 -1)" width="84" x="6" y="-91"/></g><g><rect fill="url(#b)" height="84" rx="6" width="84" x="6" y="6"/><path d="m75.934419 31.485036c1.930731-1.048834-.813561 3.893491-.813561 6.203389 0 2.309899-3.701083 3.457628-5.898303 3.457628-2.197218 0-3.119216-6.777906-2.470462-6.683138 3.502957.5117 6.733426-1.64756 9.182326-2.977879z" fill="#fff"/><g stroke-width=".428617" transform="matrix(.96656466 0 0 .96656466 2.235846 .268394)"><path d="m44.555653 89.251579c-9.949566-2.540716-19.081819-11.624331-27.629561-27.482411-7.2278033-13.409273-10.3136191-24.04576-9.8217538-33.854533.4024007-8.024603 2.8352157-12.464892 7.9516718-14.513121 2.870472-1.149111 6.959664-.997 10.363844.385519 3.925417 1.594207 5.346892 3.438539 6.972018 9.046042.76301 2.632768.957185 4.820006 1.144096 12.88748l.225118 9.716546.765036-2.06735c.838215-2.265106 3.955147-8.183298 5.5415-10.521775 1.497467-2.207448 1.620815-4.376994.389112-6.843968-.656823-1.315555-1.033755-2.844439-1.036518-4.204253-.0068-3.325168.110243-3.441555 3.486661-3.46849l2.95161-.02354 1.670502-2.040903c2.050795-2.505523 5.901732-5.38183 9.397334-7.0189778 2.242035-1.0500427 3.118696-1.2270466 5.998297-1.2110937 2.751048.015245 3.740936.2101016 5.37193 1.057472 1.099686.5713329 1.599544.9215105 1.110796.7781713-6.31429-1.8518443-11.84343-.476824-17.260307 4.2923932-6.654102 5.858517-11.196467 15.867332-8.997257 19.824876.84962 1.528915.659474 1.676913-.572918.445934l-.872494-.871492-.866883 1.595063c-1.941212 3.571816-5.014014 11.378271-6.161407 15.653043-1.032489 3.846699-1.223683 5.440955-1.239639 10.336752-.02018 6.193931.718237 9.502163 3.089367 13.840821 1.18919 2.17596 4.289331 6.197032 4.784816 6.206198.186796.0033-.26125-1.101423-.995663-2.455276-5.879947-10.839404-5.088869-25.109059 2.193714-39.570725 1.485786-2.950462 1.914362-3.490027 2.566706-3.231428 1.318989.522866 5.892763.748872 5.892763.291182 0-.229432-.664771-.533202-1.477268-.675046-5.08758-.888171-4.323881-5.132674 2.106591-11.708026 4.200468-4.295102 4.305489-4.482993 3.695174-6.610788-.891786-3.109134 1.283461-3.915427 5.313732-1.969623 2.055992.992629 2.347868 1.025345 5.706059.639559 1.946579-.22362 4.844005-.631997 6.438729-.907504 1.594727-.275506 3.444198-.373702 4.109941-.218211 1.066128.249003 1.210445.480516 1.210445 1.941756 0 .912475.419609 2.816061.932465 4.230191.772581 2.130264 1.090012 3.278382.952568 6.875382-.159302 4.168952-.435295 4.543944-2.451414 8.539524-1.290072 2.556699-2.099528 4.73653-2.099528 5.653971 0 .821197.600779 2.889296 1.335068 4.595778 3.122742 7.257225 3.955317 18.468864 1.99732 26.896266-1.478794 6.364851-1.463826 8.475839.07214 10.174486.969781 1.072504 1.109887 1.498989.777555 2.366943-.619224 1.617242-2.387639 2.590954-5.650017 3.110984-2.672451.425986-3.262516.382958-6.00025-.437574-3.860919-1.157159-4.732917-1.142364-7.288564.123659-1.938958.960524-2.504676 1.031055-7.994188.996697-3.463507-.02168-6.81422-.268491-8.099042-.59658zm26.488803-48.259282c.38289-.28426.930507-.888961 1.216934-1.343778.495233-.786386.507368-.781317.247453.103368-.408745 1.391285.540601 1.131469 1.379095-.377428 1.026733-1.847631 2.452621-5.816005 2.180692-6.069055-.125366-.116666-.775704.274149-1.445185.868477-1.490718 1.323374-3.212972 1.960144-5.301556 1.960144h-1.582717l.212051 2.053632c.305619 2.959832 1.466465 4.012374 3.093233 2.80464z" fill="#887161"/><path d="m45.024777 89.232833c-10.148954-2.540158-19.519685-11.922258-28.049846-28.08387-8.2041028-15.543845-11.1571742-27.715844-9.1236815-37.606074 1.9686539-9.574872 9.6736185-13.389646 18.5623755-9.190343 2.534239 1.197247 2.912771 1.55483 4.236733 4.002266 2.397122 4.43124 2.922689 7.641046 2.958128 18.066245.01715 5.047152.151361 9.047476.298235 8.889605.146869-.157868.808098-1.589463 1.469399-3.181322.661296-1.59186 2.259137-4.662515 3.550747-6.823684 3.058938-5.118324 3.283612-6.276634 1.837566-9.473752-1.174084-2.595831-1.448846-5.317012-.673066-6.665926.378541-.658204.890413-.773168 3.100655-.696391 2.596791.09021 2.674738.06043 4.088327-1.561921 2.898802-3.326902 7.844246-6.9752741 11.250283-8.2996024 2.226188-.8655824 7.155043-.7433915 9.321542.2310901 1.480053.6657234 1.55436.7503415.444318.5059949-.733123-.1613775-2.732558-.2748705-4.443179-.2522062-7.333163.0971581-14.022868 5.2960596-18.79367 14.6054806-2.396582 4.676529-3.010936 8.673185-1.639743 10.667341l.789408 1.148056-1.170798-.998819-1.170796-.998819-1.949929 3.893109c-4.085989 8.157834-6.505763 17.061163-6.492549 23.888715.0099 5.12524.897846 8.952104 3.035341 13.082 1.670302 3.227229 5.02913 7.649197 5.810156 7.649197.214775 0 .100695-.883792-.253504-1.963983-1.910471-5.826211-2.494767-12.553166-1.43163-16.482138l.503306-1.860032 1.223368 1.993318c1.870685 3.048044 5.033893 6.082175 8.756368 8.399059 4.217068 2.624725 5.178446 2.611493 5.364976-.07384.09936-1.430503-.39057-3.370529-1.907399-7.552841-1.664818-4.59035-2.089127-6.369819-2.301568-9.652221-.325906-5.035573.37074-7.778706 3.42086-13.470197 1.215231-2.267598 2.19798-4.605098 2.183892-5.194445-.01407-.589348-.392663-2.37397-.841278-3.96583-.44862-1.591861-.776986-2.934611-.729713-2.98389.04727-.04928 1.075664.577229 2.28531 1.392241 5.69058 3.834081 11.002009 5.046473 13.312808 3.038794 1.508979-1.311044 2.17847-2.544697 2.873023-5.294062.304705-1.206169.661012-2.093462.791791-1.97176.130784.121701.215089 1.460603.187351 2.975338l-.05043 2.754065 1.138966-.989038c.626434-.543971 1.609972-1.826315 2.185643-2.849654l1.009476-1.953611.05791 1.981934c.02689 2.453246-1.021942 5.68042-2.97177 9.144109-1.937299 3.441431-2.0051 5.052149-.370929 8.811592 2.174441 5.002351 3.056339 9.941384 3.101126 17.367666.03137 5.20097-.128221 7.145979-.746357 9.096342-.432438 1.364452-.911731 4.012773-1.065091 5.885164-.264366 3.227548-.217013 3.487368.911735 5.003075.986845 1.325147 1.115497 1.78252.751791 2.672716-.627541 1.535962-2.123949 2.29585-5.322757 2.702952-2.822926.359249-5.001099.148415-7.292289-.705878-1.9876-.741092-4.1797-.547704-6.430505.567302-1.91708.949687-2.538199 1.031464-7.644134 1.006471-3.357489-.01644-6.50314-.263889-7.946276-.625092zm26.687408-48.273762c.325108-.302533.826503-.477042 1.114215-.387798.718461.22286 1.673714-1.268208 2.768157-4.320837 1.213469-3.384623 1.164038-3.794785-.300058-2.489786-1.543431 1.375711-4.082602 2.373375-6.040519 2.373375h-1.514808l.226216 1.963982c.124421 1.08019.40681 2.28959.627532 2.687556.47401.854646 2.279395.955069 3.119265.173508zm-.51435-18.506378c-1.568311-.59636-3.917797-2.33432-4.482066-3.315474-1.179422-2.050763 2.677971-4.034702 8.198069-4.216442 3.262139-.107401 3.734997.351995 3.005155 2.919613-1.112794 3.914859-3.766407 5.735866-6.721158 4.612303zm-15.279441-4.010461c-.144968-.616602-.383888-1.511996-.530931-1.989765-.603083-1.959479 2.646076-2.971037 4.740303-1.475796.5828.416108 1.459524.902925 1.948272 1.081814.751712.275137.580561.421528-1.110795.950079-1.099688.343656-2.625793 1.059064-3.391352 1.589797l-1.391925.964968z" fill="#4a3932"/></g><path d="m12 6c-3.324 0-6 2.676-6 6v2 68 2c0 .334721.04135.6507.09375.96875.0487.295596.09704.596915.1875.875.00988.03038.020892.0636.03125.09375.098865.287771.2348802.547452.375.8125.1445918.273507.3156161.535615.5.78125s.3737765.473472.59375.6875c.439947.428056.94291.814526 1.5 1.09375.278545.139612.5734731.246947.875.34375-.2562018-.100222-.4867109-.236272-.71875-.375-.00741-.0044-.023866.0045-.03125 0-.031933-.0193-.062293-.04251-.09375-.0625-.120395-.0767-.2310226-.163513-.34375-.25-.1061728-.0808-.2132809-.161112-.3125-.25-.1779299-.161433-.3474596-.345388-.5-.53125-.1075789-.130255-.2183939-.265285-.3125-.40625-.025089-.03838-.038446-.08587-.0625-.125-.064763-.103032-.1302275-.204517-.1875-.3125-.1010083-.194706-.2056748-.415701-.28125-.625-.00796-.02181-.023589-.04055-.03125-.0625-.0318251-.09195-.0358045-.186831-.0625-.28125-.0303323-.106618-.0703894-.203031-.09375-.3125-.0728786-.341512-.125-.698205-.125-1.0625v-2-68-2c0-2.781848 2.2181517-5 5-5h2 68 2c2.781848 0 5 2.218152 5 5v2 68 2c0 .364295-.05212.720988-.125 1.0625-.04415.206893-.08838.397658-.15625.59375-.0077.02195-.0233.04069-.03125.0625-.06274.173739-.138383.367449-.21875.53125-.04158.0828-.07904.169954-.125.25-.0546.09721-.126774.18835-.1875.28125-.09411.140965-.204921.275995-.3125.40625-.143174.17445-.303141.346998-.46875.5-.01117.0102-.01998.02115-.03125.03125-.138386.125556-.285091.234436-.4375.34375-.102571.07315-.204318.153364-.3125.21875-.0074.0045-.02384-.0044-.03125 0-.232039.138728-.462548.274778-.71875.375.301527-.0968.596455-.204138.875-.34375.55709-.279224 1.060053-.665694 1.5-1.09375.219973-.214028.409366-.441865.59375-.6875s.355408-.507743.5-.78125c.14012-.265048.276135-.524729.375-.8125.01041-.03078.02133-.06274.03125-.09375.09046-.278085.1388-.579404.1875-.875.0524-.31805.09375-.634029.09375-.96875v-2-68-2c0-3.324-2.676-6-6-6z" fill="url(#c)" opacity=".4"/><path d="m12 90c-3.324 0-6-2.676-6-6v-2-68-2c0-.334721.04135-.6507.09375-.96875.0487-.295596.09704-.596915.1875-.875.00988-.03038.020892-.0636.03125-.09375.098865-.287771.2348802-.547452.375-.8125.1445918-.273507.3156161-.535615.5-.78125s.3737765-.473472.59375-.6875c.439947-.428056.94291-.814526 1.5-1.09375.278545-.139612.5734731-.246947.875-.34375-.2562018.100222-.4867109.236272-.71875.375-.00741.0044-.023866-.0045-.03125 0-.031933.0193-.062293.04251-.09375.0625-.120395.0767-.2310226.163513-.34375.25-.1061728.0808-.2132809.161112-.3125.25-.1779299.161433-.3474596.345388-.5.53125-.1075789.130255-.2183939.265285-.3125.40625-.025089.03838-.038446.08587-.0625.125-.064763.103032-.1302275.204517-.1875.3125-.1010083.194706-.2056748.415701-.28125.625-.00796.02181-.023589.04055-.03125.0625-.0318251.09195-.0358045.186831-.0625.28125-.0303323.106618-.0703894.203031-.09375.3125-.0728786.341512-.125.698205-.125 1.0625v2 68 2c0 2.781848 2.2181517 5 5 5h2 68 2c2.781848 0 5-2.218152 5-5v-2-68-2c0-.364295-.05212-.720988-.125-1.0625-.04415-.206893-.08838-.397658-.15625-.59375-.0077-.02195-.0233-.04069-.03125-.0625-.06274-.173739-.138383-.367449-.21875-.53125-.04158-.0828-.07904-.169954-.125-.25-.0546-.09721-.126774-.18835-.1875-.28125-.09411-.140965-.204921-.275995-.3125-.40625-.143174-.17445-.303141-.346998-.46875-.5-.01117-.0102-.01998-.02115-.03125-.03125-.138386-.125556-.285091-.234436-.4375-.34375-.102571-.07315-.204318-.153364-.3125-.21875-.0074-.0045-.02384.0044-.03125 0-.232039-.138728-.462548-.274778-.71875-.375.301527.0968.596455.204138.875.34375.55709.279224 1.060053.665694 1.5 1.09375.219973.214028.409366.441865.59375.6875s.355408.507743.5.78125c.14012.265048.276135.524729.375.8125.01041.03078.02133.06274.03125.09375.09046.278085.1388.579404.1875.875.0524.31805.09375.634029.09375.96875v2 68 2c0 3.324-2.676 6-6 6z" fill="url(#d)" opacity=".25"/></g><rect height="66" rx="12" style="opacity:.15;stroke:#fefefe;stroke-width:.5;stroke-linecap:round;clip-path:url(#e);fill:url(#g);filter:url(#f)" width="66" x="15" y="15"/></svg>